<svg width="438" height="400" viewBox="0 0 438 400" fill="none" xmlns="http://www.w3.org/2000/svg">
<path d="M113.074 13.8276C83.5416 29.5465 64.9738 58.2438 54.0496 88.8673C53.5941 90.1441 48.633 101.527 51.4665 99.7164C85.9708 77.672 121.616 57.3051 156.277 35.4612C174.389 24.0466 192.325 13.3228 213.557 9.04882C214.585 8.84193 217.24 9.31268 216.528 10.0821C201.662 26.1432 181.519 40.5772 164.995 54.318C139.182 75.7819 129.764 83.3382 104.356 103.979C86.5925 118.409 68.563 132.307 53.6622 149.829C41.5146 164.113 30.654 180.03 20.8565 196.002C16.2615 203.493 11.4765 211.594 9.23244 220.219C6.36753 231.231 30.7495 212.299 40.3591 206.206C109.132 162.598 176.366 116.132 247.784 76.8558C268.099 65.6837 289.296 56.2922 309.779 45.4709C319.719 40.2195 316.717 43.274 305.71 51.6058C237.728 103.065 166.127 154.715 110.491 219.961C98.3736 234.171 87.7697 250.599 79.3642 267.297C78.0737 269.86 74.3136 272.624 75.7479 275.11C76.9287 277.157 80.3468 273.706 82.2702 272.334C90.1758 266.692 97.5314 260.315 105.066 254.187C167.295 203.576 229.139 145.03 305 115.473C324.747 107.78 345.453 102.141 365.962 96.875C369.73 95.9076 373.522 95.0329 377.327 94.2273C381.517 93.3404 387.866 91.427 380.169 96.0355C363.011 106.309 345.038 115.176 327.861 125.419C276.982 155.756 228.321 189.091 182.689 226.935C137.316 264.565 98.4818 307.762 59.0221 351.248C56.7839 353.715 45.258 365.765 42.2964 370.492C33.5255 384.492 71.3767 354.629 84.7888 344.984C172.779 281.705 258.113 212.68 359.762 172.431C380.104 164.377 401.498 155.818 423.049 151.508C437.489 148.62 417.046 157.042 414.912 158.224C355.329 191.224 296.461 232.603 249.721 282.408C219.591 314.514 200.296 353.662 176.554 390.189C174.486 393.371 182.266 385.186 185.014 382.568C213.776 355.163 241.705 326.864 270.644 299.65C285.402 285.773 304.815 267.377 322.694 256.254C339.464 245.821 359.029 240.485 378.167 236.622C385.374 235.167 389.486 234.546 396.184 233.781C397.724 233.605 401.375 232.328 400.834 233.781C397.19 243.553 382.285 258.783 376.875 265.488C361.189 284.931 344.63 303.59 328.636 322.769C313.282 341.181 295.173 360.514 284.787 382.439C283.423 385.318 281.647 388.382 286.014 384.893C301.703 372.36 317.119 359.746 333.414 347.955C346.536 338.459 358.972 329.699 372.936 321.671C385.132 314.66 386.654 314.72 383.398 327.031C379.223 342.816 375.351 357.328 395.474 363.001C405.555 365.843 416.769 363.618 426.923 362.549" stroke="currentColor" stroke-width="15" stroke-linecap="round"/>
</svg>
